<svg width="960" height="280" viewBox="0 0 960 280" fill="none" xmlns="http://www.w3.org/2000/svg" role="img" aria-label="Catchup — local-first WhatsApp summaries">
  <defs>
    <linearGradient id="bg" x1="0" y1="0" x2="960" y2="280" gradientUnits="userSpaceOnUse">
      <stop stop-color="#0b1320"/>
      <stop offset="1" stop-color="#06090f"/>
    </linearGradient>
    <radialGradient id="bgglow" cx="0" cy="0" r="1" gradientUnits="userSpaceOnUse" gradientTransform="translate(480 60) rotate(35) scale(620 360)">
      <stop stop-color="#38bdf8" stop-opacity="0.20"/>
      <stop offset="0.7" stop-color="#38bdf8" stop-opacity="0"/>
    </radialGradient>
    <linearGradient id="tile2" x1="0" y1="0" x2="256" y2="256" gradientUnits="userSpaceOnUse">
      <stop stop-color="#0d1626"/>
      <stop offset="1" stop-color="#070a10"/>
    </linearGradient>
    <radialGradient id="tileglow" cx="0" cy="0" r="1" gradientUnits="userSpaceOnUse" gradientTransform="translate(205 38) rotate(125) scale(210)">
      <stop stop-color="#38bdf8" stop-opacity="0.40"/>
      <stop offset="0.6" stop-color="#38bdf8" stop-opacity="0"/>
    </radialGradient>
    <linearGradient id="bubble2" x1="44" y1="52" x2="212" y2="186" gradientUnits="userSpaceOnUse">
      <stop stop-color="#aee9ff"/>
      <stop offset="0.5" stop-color="#7dd3fc"/>
      <stop offset="1" stop-color="#38bdf8"/>
    </linearGradient>
    <linearGradient id="word" x1="416" y1="110" x2="724" y2="170" gradientUnits="userSpaceOnUse">
      <stop stop-color="#eaf7ff"/>
      <stop offset="1" stop-color="#7dd3fc"/>
    </linearGradient>
    <filter id="soft2" x="-40" y="-30" width="336" height="336" filterUnits="userSpaceOnUse">
      <feDropShadow dx="0" dy="7" stdDeviation="12" flood-color="#1ca3e0" flood-opacity="0.45"/>
    </filter>
  </defs>

  <rect width="960" height="280" rx="28" fill="url(#bg)"/>
  <rect width="960" height="280" rx="28" fill="url(#bgglow)"/>

  <!-- logo tile (icon artwork in 256-space, scaled to 160 and centred with the wordmark) -->
  <g transform="translate(232 60) scale(0.625)">
    <rect width="256" height="256" rx="60" fill="url(#tile2)"/>
    <rect width="256" height="256" rx="60" fill="url(#tileglow)"/>
    <rect x="1.25" y="1.25" width="253.5" height="253.5" rx="58.75" stroke="#7dd3fc" stroke-opacity="0.16" stroke-width="2.5"/>
    <g filter="url(#soft2)">
      <path d="M74 52H182a30 30 0 0 1 30 30v52a30 30 0 0 1-30 30H120l-34 30 4-30H74a30 30 0 0 1-30-30V82a30 30 0 0 1 30-30Z" fill="url(#bubble2)"/>
    </g>
    <path d="M74 52H182a30 30 0 0 1 30 30v6H44v-6a30 30 0 0 1 30-30Z" fill="#ffffff" fill-opacity="0.20"/>
    <g fill="#06243a">
      <rect x="70" y="80" width="116" height="14" rx="7" fill-opacity="0.92"/>
      <rect x="70" y="106" width="86" height="14" rx="7" fill-opacity="0.78"/>
      <rect x="70" y="132" width="52" height="14" rx="7" fill-opacity="0.62"/>
    </g>
  </g>

  <!-- wordmark + tagline: cluster centred with the tile on the canvas -->
  <text x="416" y="150" font-family="'Trebuchet MS', 'Segoe UI', Helvetica, Arial, sans-serif" font-size="84" font-weight="700" letter-spacing="-2" fill="url(#word)">Catchup</text>
  <text x="569" y="188" text-anchor="middle" font-family="'Trebuchet MS', 'Segoe UI', Helvetica, Arial, sans-serif" font-size="20" font-weight="500" letter-spacing="0" fill="#8aa0b6">Local-first WhatsApp summaries. Nothing leaves your machine.</text>
</svg>
