<svg width="256" height="256" viewBox="0 0 256 256" fill="none" xmlns="http://www.w3.org/2000/svg" role="img" aria-label="Catchup logo">
  <defs>
    <linearGradient id="tile" x1="0" y1="0" x2="256" y2="256" gradientUnits="userSpaceOnUse">
      <stop stop-color="#12203a"/>
      <stop offset="1" stop-color="#070c16"/>
    </linearGradient>
    <radialGradient id="tileGlow" cx="0" cy="0" r="1" gradientUnits="userSpaceOnUse" gradientTransform="translate(196 44) rotate(122) scale(214)">
      <stop stop-color="#5cc6f5" stop-opacity="0.45"/>
      <stop offset="0.62" stop-color="#5cc6f5" stop-opacity="0"/>
    </radialGradient>
    <linearGradient id="bubble" x1="44" y1="48" x2="214" y2="190" gradientUnits="userSpaceOnUse">
      <stop stop-color="#d6f4ff"/>
      <stop offset="0.45" stop-color="#7dd3fc"/>
      <stop offset="1" stop-color="#36b8f0"/>
    </linearGradient>
    <filter id="bubbleShadow" x="-40" y="-30" width="336" height="336" filterUnits="userSpaceOnUse">
      <feDropShadow dx="0" dy="6" stdDeviation="11" flood-color="#0b4a6b" flood-opacity="0.55"/>
    </filter>
  </defs>

  <!-- app tile -->
  <rect width="256" height="256" rx="60" fill="url(#tile)"/>
  <rect width="256" height="256" rx="60" fill="url(#tileGlow)"/>
  <rect x="1.5" y="1.5" width="253" height="253" rx="58.5" stroke="#8fd6f7" stroke-opacity="0.20" stroke-width="3"/>

  <!-- speech bubble: body + tail -->
  <g filter="url(#bubbleShadow)">
    <path d="M74 50H182a30 30 0 0 1 30 30v54a30 30 0 0 1-30 30H120l-34 30 4-30H74a30 30 0 0 1-30-30V80a30 30 0 0 1 30-30Z" fill="url(#bubble)"/>
  </g>
  <!-- glass highlight along the top edge -->
  <path d="M74 50H182a30 30 0 0 1 30 30v6H44v-6a30 30 0 0 1 30-30Z" fill="#ffffff" fill-opacity="0.22"/>

  <!-- summary lines: taper many → few (the gist) -->
  <g fill="#0a2540">
    <rect x="70" y="80" width="116" height="14" rx="7" fill-opacity="0.92"/>
    <rect x="70" y="106" width="86" height="14" rx="7" fill-opacity="0.80"/>
    <rect x="70" y="132" width="52" height="14" rx="7" fill-opacity="0.64"/>
  </g>
</svg>
